PathFileType  4	(X/Y/Z) C:\simtk\uwmodels\fbknee\data\invivovalid3\exp\aclc01\Files_W_HJCs
DataRate	CameraRate	NumFrames	NumMarkers	Units	OrigDataRate	OrigDataStartFrame	OrigNumFrames
  200.0      200.0       5         52 mm      200.0         753      1204
Frame#	Time            R.Shoulder                       R.Clavicle                       R.Bicep                          R.Elbow                          R.Forearm                        R.Wrist                          L.Shoulder                       L.Clavicle                       L.Scapula                        L.Bicep                          L.Elbow                          L.Forearm                        L.Wrist                          R.ASIS                           R.PSIS                           S2                               L.PSIS                           L.ASIS                           R.TH1                            R.TH2                            R.TH3                            R.Knee                           R.SH1                            R.SH2                            R.SH3                            R.SH4                            R.Ankle                          R.Heel                           R.MT5                            L.TH1                            L.TH2                            L.TH3                            L.TH4                            L.Knee                           L.SH1                            L.SH2                            L.SH3                            L.Ankle                          L.Heel                           L.MT5                            R.Melb                           R.GTR                            R.Mkn                            R.Man                            R.MT0                            L.Melb                           L.GTR                            L.Mkn                            L.Man                            L.MT0                            R_HJC                            L_HJC                  
                     X1         Y1         Z1         X2         Y2         Z2         X3         Y3         Z3         X4         Y4         Z4         X5         Y5         Z5         X6         Y6         Z6         X7         Y7         Z7         X8         Y8         Z8         X9         Y9         Z9         X10         Y10         Z10         X11         Y11         Z11         X12         Y12         Z12         X13         Y13         Z13         X14         Y14         Z14         X15         Y15         Z15         X16         Y16         Z16         X17         Y17         Z17         X18         Y18         Z18         X19         Y19         Z19         X20         Y20         Z20         X21         Y21         Z21         X22         Y22         Z22         X23         Y23         Z23         X24         Y24         Z24         X25         Y25         Z25         X26         Y26         Z26         X27         Y27         Z27         X28         Y28         Z28         X29         Y29         Z29         X30         Y30         Z30         X31         Y31         Z31         X32         Y32         Z32         X33         Y33         Z33         X34         Y34         Z34         X35         Y35         Z35         X36         Y36         Z36         X37         Y37         Z37         X38         Y38         Z38         X39         Y39         Z39         X40         Y40         Z40         X41         Y41         Z41         X42         Y42         Z42         X43         Y43         Z43         X44         Y44         Z44         X45         Y45         Z45         X46         Y46         Z46         X47         Y47         Z47         X48         Y48         Z48         X49         Y49         Z49         X50         Y50         Z50         X51         Y51         Z51         X52         Y52         Z52         

	753	3.76000	536.145	1930.992	1605.394	616.361	2080.878	1600.307	585.966	1883.295	1396.729	468.444	1852.831	1305.797	549.640	1763.145	1246.786	502.908	1731.207	1132.435	567.882	2307.190	1610.094	626.022	2137.795	1600.842	443.181	2214.523	1576.541	613.854	2353.959	1454.061	517.527	2412.261	1316.849	582.725	2480.125	1254.139	546.369	2504.520	1135.723	658.677	1987.093	1151.136	428.364	2067.855	1226.792	420.136	2121.157	1221.206	433.207	2174.053	1229.087	657.106	2242.566	1140.212	596.544	1905.867	945.258	445.640	1935.781	959.195	441.993	1942.755	883.813	494.646	1913.326	736.458	519.431	1881.036	604.318	519.608	1887.698	529.586	410.056	1929.008	610.188	408.593	1924.542	533.962	482.148	1893.942	333.255	416.215	1942.736	299.716	601.492	1863.865	276.053	600.095	2312.053	907.387	603.650	2299.063	826.421	451.765	2305.777	908.381	446.289	2300.432	832.094	498.045	2312.900	727.326	540.158	2334.132	641.800	428.989	2319.919	642.649	424.046	2335.868	566.893	505.522	2357.465	338.149	421.550	2325.674	296.903	604.830	2384.169	278.569	536.680	1926.972	1274.424	537.783	1892.446	1094.500	511.286	2077.764	693.949	506.683	1984.807	337.282	618.097	1978.483	279.223	590.301	2320.413	1270.987	527.359	2324.321	1111.883	500.385	2145.449	695.209	511.761	2260.434	333.919	624.132	2261.474	279.316	560.818	2016.055	1101.379	553.359	2214.185	1080.633
	754	3.76500	536.145	1930.992	1605.394	616.328	2080.854	1600.079	585.958	1883.220	1396.822	468.569	1851.625	1304.812	549.866	1763.142	1247.197	502.908	1731.207	1132.435	567.830	2307.203	1610.067	625.849	2137.844	1600.664	443.181	2214.523	1576.541	613.891	2353.972	1454.025	517.527	2412.261	1316.849	582.725	2480.125	1254.139	546.435	2504.554	1135.885	658.677	1987.093	1151.136	428.364	2067.855	1226.792	419.657	2121.094	1221.119	433.207	2174.053	1229.087	656.952	2242.547	1140.199	596.544	1905.867	945.258	445.687	1935.443	959.076	441.870	1942.810	884.219	494.601	1913.402	736.473	519.431	1881.036	604.318	519.632	1887.797	529.609	410.015	1929.141	610.077	408.270	1924.719	534.037	482.176	1893.887	333.010	416.000	1943.641	299.427	601.492	1863.865	276.053	600.063	2312.166	907.464	603.575	2299.044	826.579	451.658	2306.068	908.475	446.368	2300.488	832.098	498.045	2312.900	727.326	540.128	2334.003	641.621	428.989	2319.919	642.649	424.046	2335.868	566.893	505.436	2357.409	338.153	421.734	2325.750	296.994	604.830	2384.169	278.569	536.680	1926.972	1274.424	537.783	1892.446	1094.500	511.286	2077.764	693.949	506.683	1984.807	337.282	619.152	1978.692	279.219	589.711	2320.453	1270.695	527.193	2324.134	1112.243	500.385	2145.449	695.209	511.272	2261.974	333.990	624.132	2261.474	279.316	560.734	2016.036	1101.380	553.226	2214.162	1080.605
	755	3.77000	536.145	1930.992	1605.394	616.368	2080.848	1600.334	585.744	1883.191	1396.640	468.674	1851.900	1305.720	549.582	1763.085	1246.856	502.919	1731.420	1132.476	567.970	2307.198	1610.080	625.849	2137.844	1600.664	443.181	2214.523	1576.541	613.789	2353.984	1454.033	517.527	2412.261	1316.849	582.725	2480.125	1254.139	546.435	2504.554	1135.885	658.677	1987.093	1151.136	428.364	2067.855	1226.792	419.657	2121.094	1221.119	433.207	2174.053	1229.087	657.117	2242.485	1140.228	596.531	1906.104	945.332	445.523	1935.512	959.024	441.875	1942.710	884.106	494.627	1913.358	736.517	519.451	1881.124	604.358	519.608	1887.698	529.586	410.092	1929.135	610.205	408.465	1924.640	534.095	482.176	1893.887	333.010	416.000	1943.641	299.427	601.226	1863.847	276.332	600.133	2312.128	907.491	603.799	2299.111	826.568	451.765	2305.777	908.381	446.368	2300.488	832.098	498.051	2312.699	727.296	540.143	2333.967	641.654	429.078	2319.879	642.674	424.046	2335.868	566.893	505.522	2357.465	338.149	421.689	2325.678	297.050	604.830	2384.169	278.569	536.680	1926.972	1274.424	537.783	1892.446	1094.500	510.948	2077.578	694.023	506.443	1984.804	337.120	619.007	1978.725	279.421	589.295	2320.456	1270.785	526.875	2324.596	1112.274	500.385	2145.449	695.209	511.272	2261.974	333.990	624.132	2261.474	279.316	560.751	2016.025	1101.377	553.309	2214.157	1080.632
	756	3.77500	536.145	1930.992	1605.394	616.355	2080.866	1600.322	585.958	1883.220	1396.822	468.597	1852.188	1305.666	549.739	1763.061	1247.049	502.919	1731.420	1132.476	567.970	2307.198	1610.080	626.021	2137.704	1600.547	443.181	2214.523	1576.541	613.854	2353.959	1454.061	517.412	2412.261	1316.938	582.612	2480.132	1254.214	546.377	2504.550	1135.705	658.612	1986.661	1151.223	428.364	2067.855	1226.792	419.657	2121.094	1221.119	433.274	2174.084	1229.142	656.938	2242.546	1140.206	596.494	1905.674	945.307	445.589	1935.550	959.272	442.090	1942.583	884.018	494.627	1913.358	736.517	519.451	1881.124	604.358	519.402	1887.769	529.455	410.051	1929.268	610.093	408.350	1924.480	533.991	481.852	1893.879	333.151	416.215	1942.736	299.716	601.226	1863.847	276.332	600.133	2312.128	907.491	603.363	2298.925	826.377	451.658	2306.068	908.475	446.261	2300.698	832.004	497.875	2312.884	727.254	540.128	2334.003	641.621	429.078	2319.879	642.674	423.981	2335.891	566.764	505.436	2357.409	338.153	421.805	2325.966	297.189	604.603	2384.248	278.519	536.680	1926.972	1274.424	537.783	1892.446	1094.500	510.948	2077.578	694.023	506.683	1984.807	337.282	619.007	1978.725	279.421	589.295	2320.456	1270.785	526.875	2324.596	1112.274	500.385	2145.449	695.209	511.272	2261.974	333.990	624.107	2261.482	279.316	560.666	2015.903	1101.438	553.289	2214.029	1080.610
	757	3.78000	536.205	1931.112	1605.410	616.540	2080.896	1600.209	585.744	1883.191	1396.640	468.971	1851.233	1304.981	549.709	1763.166	1247.004	502.908	1731.207	1132.435	567.970	2307.198	1610.080	626.022	2137.795	1600.842	443.181	2214.523	1576.541	613.891	2353.972	1454.025	517.527	2412.261	1316.849	582.725	2480.125	1254.139	546.435	2504.554	1135.885	658.677	1987.093	1151.136	428.364	2067.855	1226.792	419.644	2121.147	1220.971	433.207	2174.053	1229.087	657.027	2242.509	1140.227	596.494	1905.674	945.307	445.559	1935.976	959.207	441.925	1942.700	883.904	494.627	1913.358	736.517	519.431	1881.036	604.318	519.681	1887.487	529.608	410.015	1929.141	610.077	408.392	1924.591	533.865	482.196	1893.776	333.081	416.215	1942.736	299.716	601.492	1863.865	276.053	600.222	2312.111	907.483	603.493	2299.042	826.509	451.658	2306.068	908.475	446.368	2300.488	832.098	497.762	2312.912	727.247	540.158	2334.132	641.800	429.078	2319.879	642.674	424.026	2335.971	566.649	505.444	2357.376	338.185	421.689	2325.678	297.050	604.784	2384.158	278.588	536.680	1926.972	1274.424	537.783	1892.446	1094.500	510.948	2077.578	694.023	506.572	1984.780	337.320	618.097	1978.483	279.223	589.295	2320.456	1270.785	527.193	2324.134	1112.243	500.385	2145.449	695.209	511.272	2261.974	333.990	624.057	2261.601	279.397	560.753	2016.040	1101.358	553.295	2214.170	1080.602
